<?xml version="1.0" encoding="UTF-8"?>
<svg width="18px" height="18px" viewBox="0 0 18 18" version="1.1" xmlns="http://www.w3.org/2000/svg" xmlns:xlink="http://www.w3.org/1999/xlink">
    <!-- Generator: Sketch 52.6 (67491) - http://www.bohemiancoding.com/sketch -->
    <title>Group</title>
    <desc>Created with Sketch.</desc>
    <g id="Attach" stroke="none" stroke-width="1" fill="none" fill-rule="evenodd">
        <g id="Group">
            <polygon id="Path" transform="translate(9.000000, 9.000000) rotate(-360.000000) translate(-9.000000, -9.000000) " points="0 0 18 0 18 18 0 18"></polygon>
            <path d="M11.7504464,4.25044642 L11.7504464,12.8754464 C11.7504464,14.5329464 10.4079464,15.8754464 8.75044642,15.8754464 C7.09294642,15.8754464 5.75044642,14.5329464 5.75044642,12.8754464 L5.75044642,3.50044642 C5.75044642,2.46544642 6.59044642,1.62544642 7.62544642,1.62544642 C8.66044642,1.62544642 9.50044642,2.46544642 9.50044642,3.50044642 L9.50044642,11.3754464 C9.50044642,11.7879464 9.16294642,12.1254464 8.75044642,12.1254464 C8.33794642,12.1254464 8.00044642,11.7879464 8.00044642,11.3754464 L8.00044642,4.25044642 L6.87544642,4.25044642 L6.87544642,11.3754464 C6.87544642,12.4104464 7.71544642,13.2504464 8.75044642,13.2504464 C9.78544642,13.2504464 10.6254464,12.4104464 10.6254464,11.3754464 L10.6254464,3.50044642 C10.6254464,1.84294642 9.28294642,0.500446417 7.62544642,0.500446417 C5.96794642,0.500446417 4.62544642,1.84294642 4.62544642,3.50044642 L4.62544642,12.8754464 C4.62544642,15.1554464 6.47044642,17.0004464 8.75044642,17.0004464 C11.0304464,17.0004464 12.8754464,15.1554464 12.8754464,12.8754464 L12.8754464,4.25044642 L11.7504464,4.25044642 Z" id="Path" fill="#000000" transform="translate(8.750446, 8.750446) rotate(-315.000000) translate(-8.750446, -8.750446) "></path>
        </g>
    </g>
</svg>