<?xml version="1.0" encoding="UTF-8"?>
<svg width="16px" height="21px" viewBox="0 0 16 21" version="1.1" xmlns="http://www.w3.org/2000/svg" xmlns:xlink="http://www.w3.org/1999/xlink">
    <!-- Generator: Sketch 52.6 (67491) - http://www.bohemiancoding.com/sketch -->
    <title>Shape</title>
    <desc>Created with Sketch.</desc>
    <g id="Header" stroke="none" stroke-width="1" fill="none" fill-rule="evenodd">
        <g transform="translate(-737.000000, -10.000000)" fill="#FF4E00" fill-rule="nonzero" id="Group-2">
            <g transform="translate(733.000000, 4.000000)">
                <g id="outline-notifications-24px" transform="translate(0.000000, 4.000000)">
                    <path d="M12,22.5 C13.1,22.5 14,21.5769231 14,20.4487179 L10,20.4487179 C10,21.5769231 10.9,22.5 12,22.5 Z M18,16.3461538 L18,11.2179487 C18,8.06923077 16.37,5.43333333 13.5,4.73589744 L13.5,4.03846154 C13.5,3.18717949 12.83,2.5 12,2.5 C11.17,2.5 10.5,3.18717949 10.5,4.03846154 L10.5,4.73589744 C7.64,5.43333333 6,8.05897436 6,11.2179487 L6,16.3461538 L4,18.3974359 L4,19.4230769 L20,19.4230769 L20,18.3974359 L18,16.3461538 Z M16,17.3717949 L8,17.3717949 L8,11.2179487 C8,8.67435897 9.51,6.6025641 12,6.6025641 C14.49,6.6025641 16,8.67435897 16,11.2179487 L16,17.3717949 Z" id="Shape"></path>
                </g>
            </g>
        </g>
    </g>
</svg>